<?xml version="1.0" encoding="utf-8"?>
<!-- Generator: Adobe Illustrator 24.2.0, SVG Export Plug-In . SVG Version: 6.00 Build 0)  -->
<svg version="1.1" id="レイヤー_1" xmlns="http://www.w3.org/2000/svg" xmlns:xlink="http://www.w3.org/1999/xlink" x="0px"
	 y="0px" viewBox="0 0 132.32 34.99" style="enable-background:new 0 0 132.32 34.99;" xml:space="preserve">
<style type="text/css">
	.st0{fill:#FFFFFF;}
</style>
<g>
	<g>
		<path class="st0" d="M113.37,23.01c-0.81-0.33-1.4-0.56-1.77-0.79c-0.37-0.24-0.5-0.42-0.51-0.74c0.01-0.45,0.29-0.8,1.3-0.82
			c0,0,0.47,0.01,1.24,0.17c0.77,0.16,1.83,0.47,2.99,1.07l0.16,0.08l1.98-3.94l-0.13-0.09c-2.52-1.69-5.38-1.79-6.08-1.79
			c-0.11,0-0.16,0-0.17,0c-2.25,0-3.9,0.63-4.99,1.62c-1.09,0.99-1.6,2.33-1.6,3.7c-0.01,2.74,1.66,4.62,5.04,5.92
			c1.15,0.45,1.87,0.8,2.28,1.11c0.41,0.32,0.51,0.55,0.52,0.9c0,0.61-0.46,0.89-1.3,0.91c0,0-0.02,0-0.05,0
			c-0.32,0-2.28-0.06-4.46-1.37l-0.17-0.1l-0.09,0.18l-1.85,3.68l0.11,0.09c2.31,1.94,5.64,2.03,6.31,2.03c0.07,0,0.11,0,0.12,0
			c2.23,0,4.01-0.62,5.23-1.62c1.22-1,1.88-2.39,1.88-3.88C119.37,25.81,116.72,24.31,113.37,23.01z"/>
		<polygon class="st0" points="67.71,0.18 61.6,0.18 61.6,16.14 59.08,16.14 59.08,21.38 61.6,21.38 61.6,34.21 67.71,34.21 
			67.71,21.38 73.03,21.38 73.03,16.14 67.71,16.14 		"/>
		<polygon class="st0" points="20.07,16.15 12.33,16.15 6.11,22.53 6.11,0.18 0,0.18 0,34.21 6.11,34.21 6.11,24.93 6.27,24.96 
			14.56,34.21 22.35,34.21 12.66,23.73 		"/>
		<rect x="30.17" y="16.08" class="st0" width="5.84" height="18.13"/>
		<rect x="43.25" y="16.08" class="st0" width="5.84" height="18.13"/>
		<path class="st0" d="M33.04,0c-1.64,0-2.97,1.33-2.97,2.97c0,1.64,1.33,2.97,2.97,2.97c1.64,0,2.97-1.33,2.97-2.97
			C36.01,1.33,34.68,0,33.04,0z"/>
		<path class="st0" d="M46.18,0c-1.64,0-2.97,1.33-2.97,2.97c0,1.64,1.33,2.97,2.97,2.97c1.64,0,2.97-1.33,2.97-2.97
			C49.16,1.33,47.83,0,46.18,0z"/>
		<path class="st0" d="M129.35,29.05c-1.64,0-2.97,1.33-2.97,2.97c0,1.64,1.33,2.97,2.97,2.97s2.97-1.33,2.97-2.97
			C132.32,30.38,130.99,29.05,129.35,29.05z"/>
		<path class="st0" d="M88.92,15.97c-5.25,0-9.5,4.25-9.5,9.5c0,5.25,4.25,9.5,9.5,9.51c5.25,0,9.51-4.25,9.51-9.51
			C98.42,20.22,94.17,15.97,88.92,15.97z M88.92,29.5c-2.23,0-4.03-1.81-4.04-4.04c0-2.23,1.81-4.03,4.04-4.03
			c2.23,0,4.03,1.81,4.04,4.03C92.95,27.7,91.15,29.5,88.92,29.5z"/>
	</g>
</g>
</svg>
