<svg id="m_fudge_logo_white.svg" xmlns="http://www.w3.org/2000/svg" width="230.281" height="36.3" viewBox="0 0 230.281 36.3">
  <defs>
    <style>
      .cls-1 {
        fill: #fff;
        fill-rule: evenodd;
      }
    </style>
  </defs>
  <path id="M_FUDGE" class="cls-1" d="M219.49,22726a0.693,0.693,0,0,0-.714.7v34.9a0.693,0.693,0,0,0,.714.7h5.387a0.679,0.679,0,0,0,.669-0.7V22750a2.53,2.53,0,0,1,2.524-2.5h14.068a0.652,0.652,0,0,0,.663-0.7v-5.3a0.652,0.652,0,0,0-.663-0.7H228.07a2.513,2.513,0,0,1-2.524-2.4v-3.2a2.53,2.53,0,0,1,2.524-2.5h14.068a0.652,0.652,0,0,0,.663-0.7v-5.3a0.652,0.652,0,0,0-.663-0.7H219.49Zm119.411,0a0.692,0.692,0,0,0-.71.7v34.9a0.692,0.692,0,0,0,.71.7h22.65a0.7,0.7,0,0,0,.72-0.7v-5.2a0.7,0.7,0,0,0-.72-0.7H347.536a2.488,2.488,0,0,1-2.514-2.5v-3.2a2.488,2.488,0,0,1,2.514-2.5h14.015a0.7,0.7,0,0,0,.72-0.7v-5.3a0.7,0.7,0,0,0-.72-0.7H347.536a2.469,2.469,0,0,1-2.514-2.4v-3.2a2.488,2.488,0,0,1,2.514-2.5h14.015a0.7,0.7,0,0,0,.72-0.7v-5.3a0.7,0.7,0,0,0-.72-0.7H338.9Zm-71.221,0a0.674,0.674,0,0,0-.717.7v26.5a2.491,2.491,0,0,1-2.508,2.5h-9.71a2.524,2.524,0,0,1-2.554-2.5v-26.5a0.7,0.7,0,0,0-.725-0.7h-5.385a0.661,0.661,0,0,0-.681.7v26.5a3.043,3.043,0,0,0,.865,2.1l6.325,6.2a4,4,0,0,0,2.155.8h9.71a3.524,3.524,0,0,0,2.058-.8l6.383-6.2a3.341,3.341,0,0,0,.893-2.1v-26.5a0.721,0.721,0,0,0-.711-0.7h-5.4Zm9.346,0a0.715,0.715,0,0,0-.714.7v34.9a0.715,0.715,0,0,0,.714.7h18.361a3.858,3.858,0,0,0,2.075-.8l6.381-6.2a3.379,3.379,0,0,0,.855-2.1v-18a3.379,3.379,0,0,0-.855-2.1l-6.381-6.2a3.324,3.324,0,0,0-2.075-.9H277.026Zm6.1,27.2v-18a2.5,2.5,0,0,1,2.52-2.5h9.738a2.5,2.5,0,0,1,2.526,2.5v18a2.5,2.5,0,0,1-2.526,2.5h-9.738a2.5,2.5,0,0,1-2.52-2.5m33.457-27.2a3.256,3.256,0,0,0-2.1.9l-6.4,6.2a3.355,3.355,0,0,0-.839,2.1v18a3.355,3.355,0,0,0,.839,2.1l6.4,6.2a3.765,3.765,0,0,0,2.1.8H326.3a4.093,4.093,0,0,0,2.15-.8l6.337-6.2a3.534,3.534,0,0,0,.849-2.1v-11.7a0.7,0.7,0,0,0-.716-0.7H325.21a0.7,0.7,0,0,0-.717.7v5.3a0.7,0.7,0,0,0,.717.7H326.3a2.488,2.488,0,0,1,2.509,2.5v3.2a2.488,2.488,0,0,1-2.509,2.5h-9.716a2.486,2.486,0,0,1-2.5-2.5v-18a2.486,2.486,0,0,1,2.5-2.5h14.019a0.7,0.7,0,0,0,.725-0.7v-5.3a0.7,0.7,0,0,0-.725-0.7H316.586Zm-109.234,14.9a2.5,2.5,0,0,1-2.767-2.3h-4.653a5.566,5.566,0,0,0,1.914,4.4H212.5a5.583,5.583,0,0,0,2.468-4.6c0-7.2-9.643-5.5-9.643-8.5,0-1.3.642-1.8,2.03-1.8a2.052,2.052,0,0,1,2.273,1.9h4.532a5.684,5.684,0,0,0-1.653-4H202.2a4.976,4.976,0,0,0-2.075,4.1c0,4.5,2.974,5.3,6.215,6.2,1.008,0.3,3.428.9,3.428,2.4,0,1.6-1.058,2.2-2.42,2.2m-50.019-14.9h-8.211a13.222,13.222,0,0,0-1.515,1.9,4.341,4.341,0,0,0-1.35-1.9h-8.308a13.449,13.449,0,0,0-.88,1.1h-0.062v-1.1H132v17h5.032v-10.4c0.082-2.9,1.457-4.5,3.038-4.5,2.48,0,2.974,2.4,3.019,4.5v10.4h5.045v-10.4c0.062-2.9,1.426-4.5,3-4.5,2.486,0,2.989,2.4,3.031,4.5v10.4h5.026v-10.4a13.463,13.463,0,0,0-.5-4.7,4.348,4.348,0,0,0-1.353-1.9m5.624,17h10.808a6.723,6.723,0,0,0,2.107-4.6H171.34c-0.475,1.8-1.361,2.5-3.095,2.5-2.583,0-2.891-2.3-2.891-4.8h11.04a36.489,36.489,0,0,0-.122-3.7,12.064,12.064,0,0,0-.841-3.5,8.042,8.042,0,0,0-2.022-2.9h-9.945c-2.137,1.8-3.305,4.9-3.305,8.6,0,3.9.855,6.7,2.8,8.4m5.658-14.9c2.468,0,2.965,2,2.965,4.1h-5.845c0.081-2.1.587-4.1,2.88-4.1m23.153-2.1H183.48a11.025,11.025,0,0,0-.909,1.2l-0.056-.1v-1.1H177.5v17h5.039v-10.4c0.073-2.9,1.45-4.5,3.026-4.5,2.481,0,2.987,2.4,3.02,4.5v10.4h5.039v-11.4a15.167,15.167,0,0,0-.34-3.1,5.073,5.073,0,0,0-1.515-2.5m4.126,0-1.2,4.5h3.459l1.917-4.5h-4.179Z" transform="translate(-132 -22726)"/>
</svg>
