<svg xmlns="http://www.w3.org/2000/svg" viewBox="0 0 111.04 111.04"><defs><style>.cls-1{fill:none;stroke:#231815;stroke-linecap:round;stroke-linejoin:round;stroke-width:1.42px;}</style></defs><title>more_circle</title><g id="レイヤー_2" data-name="レイヤー 2"><g id="レイヤー_1-2" data-name="レイヤー 1"><line class="cls-1" x1="55.52" y1="0.71" x2="55.52" y2="6.38"/><line class="cls-1" x1="55.52" y1="104.66" x2="55.52" y2="110.33"/><line class="cls-1" x1="46" y1="1.54" x2="46.99" y2="7.12"/><line class="cls-1" x1="64.05" y1="103.92" x2="65.04" y2="109.5"/><line class="cls-1" x1="36.77" y1="4.01" x2="38.71" y2="9.34"/><line class="cls-1" x1="72.33" y1="101.7" x2="74.27" y2="107.03"/><line class="cls-1" x1="28.11" y1="8.05" x2="30.95" y2="12.96"/><line class="cls-1" x1="80.09" y1="98.08" x2="82.93" y2="102.99"/><line class="cls-1" x1="20.29" y1="13.53" x2="23.93" y2="17.88"/><line class="cls-1" x1="87.11" y1="93.17" x2="90.75" y2="97.51"/><line class="cls-1" x1="13.53" y1="20.29" x2="17.88" y2="23.93"/><line class="cls-1" x1="93.17" y1="87.11" x2="97.51" y2="90.75"/><line class="cls-1" x1="8.05" y1="28.11" x2="12.96" y2="30.95"/><line class="cls-1" x1="98.08" y1="80.09" x2="102.99" y2="82.93"/><line class="cls-1" x1="4.01" y1="36.77" x2="9.34" y2="38.71"/><line class="cls-1" x1="101.7" y1="72.33" x2="107.03" y2="74.27"/><line class="cls-1" x1="1.54" y1="46" x2="7.12" y2="46.99"/><line class="cls-1" x1="103.92" y1="64.05" x2="109.5" y2="65.04"/><line class="cls-1" x1="0.71" y1="55.52" x2="6.38" y2="55.52"/><line class="cls-1" x1="104.66" y1="55.52" x2="110.33" y2="55.52"/><line class="cls-1" x1="1.54" y1="65.04" x2="7.12" y2="64.05"/><line class="cls-1" x1="103.92" y1="46.99" x2="109.5" y2="46"/><line class="cls-1" x1="4.01" y1="74.27" x2="9.34" y2="72.33"/><line class="cls-1" x1="101.7" y1="38.71" x2="107.03" y2="36.77"/><line class="cls-1" x1="8.05" y1="82.93" x2="12.96" y2="80.09"/><line class="cls-1" x1="98.08" y1="30.95" x2="102.99" y2="28.11"/><line class="cls-1" x1="13.53" y1="90.75" x2="17.88" y2="87.11"/><line class="cls-1" x1="93.17" y1="23.93" x2="97.51" y2="20.29"/><line class="cls-1" x1="20.29" y1="97.51" x2="23.93" y2="93.17"/><line class="cls-1" x1="87.11" y1="17.88" x2="90.75" y2="13.53"/><line class="cls-1" x1="28.11" y1="102.99" x2="30.95" y2="98.08"/><line class="cls-1" x1="80.09" y1="12.96" x2="82.93" y2="8.05"/><line class="cls-1" x1="36.77" y1="107.03" x2="38.71" y2="101.7"/><line class="cls-1" x1="72.33" y1="9.34" x2="74.27" y2="4.01"/><line class="cls-1" x1="46" y1="109.5" x2="46.99" y2="103.92"/><line class="cls-1" x1="64.05" y1="7.12" x2="65.04" y2="1.54"/></g></g></svg>