<?xml version="1.0" encoding="utf-8"?>
<!-- Generator: Adobe Illustrator 24.2.0, SVG Export Plug-In . SVG Version: 6.00 Build 0)  -->
<svg version="1.1" id="レイヤー_1" xmlns="http://www.w3.org/2000/svg" xmlns:xlink="http://www.w3.org/1999/xlink" x="0px"
	 y="0px" viewBox="0 0 190.61 34.47" style="enable-background:new 0 0 190.61 34.47;" xml:space="preserve">
<style type="text/css">
	.st0{fill:#FFFFFF;}
</style>
<g>
	<g>
		<path class="st0" d="M127.12,0.8h6.29v18.81c0,2.34,0.83,4.36,2.49,6.04c1.66,1.68,3.66,2.53,5.99,2.53c2.37,0,4.39-0.83,6.05-2.5
			c1.66-1.67,2.49-3.69,2.49-6.07V0.8h6.29v30.88h-6.29c-2.55,1.86-5.4,2.79-8.54,2.79c-4.12,0-7.62-1.45-10.48-4.34
			c-2.87-2.89-4.3-6.4-4.3-10.54V0.8z"/>
	</g>
	<g>
		<path class="st0" d="M75.32,33.67h-6.29V14.86c0-2.34-0.83-4.36-2.49-6.04c-1.66-1.68-3.66-2.53-5.99-2.53
			c-2.37,0-4.39,0.83-6.05,2.5c-1.66,1.67-2.49,3.69-2.49,6.07v18.81h-6.29V2.79h6.29C54.56,0.93,57.41,0,60.55,0
			c4.12,0,7.62,1.44,10.48,4.34c2.87,2.89,4.3,6.4,4.3,10.54V33.67z"/>
	</g>
	<g>
		<path class="st0" d="M28.12,17.26c0-3.04-1.06-5.62-3.17-7.76c-2.12-2.14-4.69-3.21-7.71-3.21c-3.07,0-5.66,1.06-7.77,3.18
			c-2.12,2.12-3.17,4.72-3.17,7.79c0,3.07,1.06,5.66,3.17,7.76c2.12,2.1,4.71,3.16,7.77,3.16c3.03,0,5.6-1.06,7.71-3.18
			C27.06,22.88,28.12,20.3,28.12,17.26 M34.41,17.23c0,4.78-1.67,8.85-5.01,12.2c-3.34,3.36-7.4,5.03-12.17,5.03
			c-4.78,0-8.85-1.68-12.2-5.03C1.68,26.08,0,22.01,0,17.23c0-4.78,1.68-8.84,5.03-12.2C8.39,1.68,12.46,0,17.24,0
			c4.78,0,8.83,1.68,12.17,5.03C32.75,8.39,34.41,12.46,34.41,17.23"/>
	</g>
	<polygon class="st0" points="117.78,0.8 100.56,17.3 117.57,33.67 108.71,33.67 96.1,21.75 95.14,22.71 95.14,33.67 88.85,33.67 
		88.85,0.8 95.14,0.8 95.14,13.73 108.88,0.8 	"/>
	<polygon class="st0" points="170.86,0.8 170.86,33.67 190.61,33.67 190.61,27.38 177.15,27.38 177.15,0.8 	"/>
</g>
</svg>
