<?xml version="1.0" encoding="utf-8"?>
<svg version="1.1" id="レイヤー_1" xmlns="http://www.w3.org/2000/svg" xmlns:xlink="http://www.w3.org/1999/xlink" x="0px"
	 y="0px" viewBox="0 0 300 49.2" style="enable-background:new 0 0 300 49.2;" xml:space="preserve">
<g>
	<path d="M8.7,45.8H0V0.6h22.6v7.6h-14v10.4h10.9v7.6H8.7V45.8z"/>
	<path d="M42.2,0.6h8.7v31.6c0,4.3,1.9,6.6,6.1,6.6c4.2,0,6.2-2.3,6.2-6.6V0.6h8.7v31.7c0,9.9-5.9,14.1-14.8,14.1
		s-14.8-4.2-14.8-14.1V0.6z"/>
	<path d="M93.9,45.8V0.6H106c9.9,0,15.8,4.3,15.8,15.6v13.9c0,11.4-5.9,15.6-15.8,15.6H93.9z M102.6,8.3v29.9h3c4.8,0,7.5-2.3,7.5-9
		V17.3c0-6.4-2.1-9-7.5-9H102.6z"/>
	<path d="M165.7,45.8l-1.3-3.8c-2.3,2.6-4.8,4.4-8.1,4.4c-8.4,0-14.3-4-14.3-15.1V15.1C141.9,4,147.9,0,156.3,0
		c8.9,0,13.6,5.1,14,15.3h-8.7c0-5.8-2.1-7.7-5.3-7.7c-3.5,0-5.7,1.4-5.7,6.4v18.4c0,5,2.2,6.4,5.7,6.4c3.3,0,5.3-2.4,5.3-6.3v-2.8
		h-6.1v-7.1h14.8v23.2H165.7z"/>
	<path d="M215.8,45.8h-24.4V0.6h23.8v7.6h-15.1v10.4h11.5v7.6h-11.5v11.9h15.7V45.8z"/>
	<ellipse cx="232.5" cy="40.6" rx="5.2" ry="5.2"/>
	<path d="M300,27.4c0,6.2-4.5,11.6-11,11.6c-5.7,0-8.7-4.1-9.5-9.3v16.2h-4.1V16.2h4.1v8.9c0.8-5.2,3.8-9.3,9.5-9.3
		C295.5,15.8,300,21.1,300,27.4z M295.7,27.4c0-4.5-3.1-7.9-8.1-7.9c-5,0-8.1,3.4-8.1,7.9c0,4.5,3.1,7.9,8.1,7.9
		C292.6,35.3,295.7,31.8,295.7,27.4z"/>
	<g>
		<path d="M264.5,38.2L264.5,38.2c0,4.4-2.9,7.5-7.4,7.5c-4.6,0-6.8-2.8-7-5.4h-3.9c0.2,4.2,4,8.9,10.8,8.9c6.6,0,11.5-5.1,11.5-11
			v-22h-4.1V38.2z"/>
		<path d="M266.6,7.3c-1.7,0-3.1,1.4-3.1,3c0,1.7,1.4,3.1,3.1,3.1c1.6,0,3-1.4,3-3.1C269.6,8.7,268.2,7.3,266.6,7.3z"/>
	</g>
</g>
</svg>
